{
	"asset":{
		"generator":"Khronos glTF Blender I/O v4.5.47",
		"version":"2.0"
	},
	"scene":0,
	"scenes":[
		{
			"name":"Scene",
			"nodes":[
				0,
				1
			]
		}
	],
	"nodes":[
		{
			"mesh":0,
			"name":"Main_Geo"
		},
		{
			"mesh":1,
			"name":"Outline"
		}
	],
	"materials":[
		{
			"name":"Body",
			"pbrMetallicRoughness":{
				"baseColorTexture":{
					"index":0
				}
			}
		},
		{
			"name":"Outline"
		}
	],
	"meshes":[
		{
			"name":"Mesh_0",
			"primitives":[
				{
					"attributes":{
						"POSITION":0,
						"NORMAL":1,
						"TEXCOORD_0":2
					},
					"indices":3,
					"material":0
				}
			]
		},
		{
			"name":"Mesh_0.001",
			"primitives":[
				{
					"attributes":{
						"POSITION":4,
						"NORMAL":5,
						"TEXCOORD_0":6
					},
					"indices":7,
					"material":1
				}
			]
		}
	],
	"textures":[
		{
			"sampler":0,
			"source":0
		}
	],
	"images":[
		{
			"mimeType":"image/png",
			"name":"0019",
			"uri":"0019.png"
		}
	],
	"accessors":[
		{
			"bufferView":0,
			"componentType":5126,
			"count":1577,
			"max":[
				0.4055621027946472,
				1.358747959136963,
				0.34715405106544495
			],
			"min":[
				-0.40556207299232483,
				0.03211859613656998,
				-0.34715399146080017
			],
			"type":"VEC3"
		},
		{
			"bufferView":1,
			"componentType":5126,
			"count":1577,
			"type":"VEC3"
		},
		{
			"bufferView":2,
			"componentType":5126,
			"count":1577,
			"type":"VEC2"
		},
		{
			"bufferView":3,
			"componentType":5123,
			"count":8136,
			"type":"SCALAR"
		},
		{
			"bufferView":4,
			"componentType":5126,
			"count":1575,
			"max":[
				0.4353742003440857,
				1.3888516426086426,
				0.3770715296268463
			],
			"min":[
				-0.4353741705417633,
				0.0020149191841483116,
				-0.3770714998245239
			],
			"type":"VEC3"
		},
		{
			"bufferView":5,
			"componentType":5126,
			"count":1575,
			"type":"VEC3"
		},
		{
			"bufferView":6,
			"componentType":5126,
			"count":1575,
			"type":"VEC2"
		},
		{
			"bufferView":7,
			"componentType":5123,
			"count":8136,
			"type":"SCALAR"
		}
	],
	"bufferViews":[
		{
			"buffer":0,
			"byteLength":18924,
			"byteOffset":0,
			"target":34962
		},
		{
			"buffer":0,
			"byteLength":18924,
			"byteOffset":18924,
			"target":34962
		},
		{
			"buffer":0,
			"byteLength":12616,
			"byteOffset":37848,
			"target":34962
		},
		{
			"buffer":0,
			"byteLength":16272,
			"byteOffset":50464,
			"target":34963
		},
		{
			"buffer":0,
			"byteLength":18900,
			"byteOffset":66736,
			"target":34962
		},
		{
			"buffer":0,
			"byteLength":18900,
			"byteOffset":85636,
			"target":34962
		},
		{
			"buffer":0,
			"byteLength":12600,
			"byteOffset":104536,
			"target":34962
		},
		{
			"buffer":0,
			"byteLength":16272,
			"byteOffset":117136,
			"target":34963
		}
	],
	"samplers":[
		{
			"magFilter":9729,
			"minFilter":9987
		}
	],
	"buffers":[
		{
			"byteLength":133408,
			"uri":"Orbo_Geo.bin"
		}
	]
}
